<?xml version="1.0" encoding="UTF-8"?> <!-- Generator: Adobe Illustrator 23.0.4, SVG Export Plug-In . SVG Version: 6.00 Build 0) --> <svg xmlns="http://www.w3.org/2000/svg" xmlns:xlink="http://www.w3.org/1999/xlink" id="Layer_1" x="0px" y="0px" viewBox="0 0 169.1 169.1" style="enable-background:new 0 0 169.1 169.1;" xml:space="preserve"> <style type="text/css"> .st0{fill:#FFFFFF;} .st1{fill:#2A2A2B;} </style> <circle class="st0" cx="84.5" cy="84.5" r="84.5"></circle> <g> <path class="st1" d="M107.2,34H61.9C46.5,34,34,46.5,34,61.9v45.3c0,15.4,12.5,27.9,27.9,27.9h45.3c15.4,0,27.9-12.5,27.9-27.9 V61.9C135.1,46.5,122.6,34,107.2,34z M126.1,107.2c0,10.4-8.5,18.9-18.9,18.9H61.9c-10.4,0-18.9-8.5-18.9-18.9V61.9 c0-10.4,8.5-18.9,18.9-18.9h45.3c10.4,0,18.9,8.5,18.9,18.9L126.1,107.2L126.1,107.2z"></path> <path class="st1" d="M84.5,58.5c-14.4,0-26.1,11.7-26.1,26.1c0,14.4,11.7,26.1,26.1,26.1s26.1-11.7,26.1-26.1 C110.6,70.2,98.9,58.5,84.5,58.5z M84.5,101.6c-9.4,0-17.1-7.7-17.1-17.1c0-9.4,7.7-17.1,17.1-17.1s17.1,7.7,17.1,17.1 C101.6,94,94,101.6,84.5,101.6z"></path> <path class="st1" d="M111.7,50.9c-1.7,0-3.4,0.7-4.6,1.9c-1.2,1.2-1.9,2.9-1.9,4.7c0,1.7,0.7,3.4,1.9,4.7c1.2,1.2,2.9,1.9,4.6,1.9 c1.7,0,3.4-0.7,4.7-1.9c1.2-1.2,1.9-2.9,1.9-4.7c0-1.7-0.7-3.4-1.9-4.7C115.1,51.6,113.4,50.9,111.7,50.9z"></path> </g> </svg> 